<?xml version="1.0" encoding="UTF-8" standalone="no"?>
<!-- Created with Inkscape (http://www.inkscape.org/) -->

<svg
   version="1.1"
   id="svg1"
   width="967.67999"
   height="1290.24"
   viewBox="0 0 967.67999 1290.24"
   xmlns="http://www.w3.org/2000/svg"
   xmlns:svg="http://www.w3.org/2000/svg">
  <defs
     id="defs1">
    <clipPath
       clipPathUnits="userSpaceOnUse"
       id="clipPath1">
      <rect
         style="fill:#0000ff"
         id="rect2"
         width="95.220665"
         height="84.111588"
         x="452.29816"
         y="666.54462" />
    </clipPath>
  </defs>
  <g
     id="g1">
    <path
       style="fill:#0000ff;stroke-width:6.55701"
       d="m 456.2359,1128.2505 c -9.35338,-5.0176 -29.25051,-12.2346 -44.21593,-16.0377 -14.96538,-3.8031 -74.65687,-28.5864 -132.64776,-55.0739 C 181.17284,1012.2858 170.19816,1005.4508 119.51459,957.57863 17.653307,861.36751 -9.4332608,786.75712 1.1374805,631.50662 8.6638945,520.96717 12.586477,504.06904 44.880361,443.06313 c 21.773837,-41.13241 37.93271,-61.8347 66.979969,-85.81274 21.05579,-17.38117 56.11618,-46.49772 77.91212,-64.7034 39.45989,-32.96016 95.28157,-64.86511 113.48934,-64.86511 5.26067,0 37.86151,-13.18232 72.44628,-29.29397 l 62.88153,-29.29399 62.16304,3.44587 c 71.9866,3.99047 143.22332,22.0874 210.15075,53.38648 55.57153,25.98839 113.7868,64.71445 131.01988,87.15704 6.74083,8.77858 19.15235,23.72949 27.58125,33.22424 23.26909,26.21146 62.89964,99.36203 62.92834,116.15388 0.0159,8.18222 6.90149,24.83148 15.30552,36.99824 14.49004,20.97769 15.20767,27.75304 13.87942,131.04334 -0.90344,70.25839 -4.29936,113.95437 -9.56688,123.09934 -4.49143,7.79765 -10.53913,22.77701 -13.43935,33.28747 -11.17653,40.50468 -27.58003,74.30706 -53.00599,109.22814 -14.53238,19.95948 -32.81518,48.10035 -40.62842,62.53524 -23.17567,42.8168 -116.50121,129.6653 -161.99252,150.7499 -37.13293,17.2105 -44.99122,18.4092 -122.36182,18.6647 -45.47421,0.1505 -81.26151,2.4063 -79.52732,5.0135 4.89234,7.3549 -6.14087,5.2109 -24.8596,-4.8308 z m 115.64167,-41.0377 c -7.39226,-4.4058 -1.76938,-6.1178 20.40732,-6.2135 53.20353,-0.2294 75.55876,-10.1536 128.48229,-57.0367 27.63975,-24.48503 48.77384,-45.89364 46.96468,-47.57459 -1.80917,-1.68107 -24.42354,8.28797 -50.25406,22.15318 -62.3675,33.47741 -137.27241,50.57341 -222.12781,50.69741 -67.82172,0.099 -83.4109,6.6407 -47.61716,19.9809 10.28871,3.8345 24.82895,9.2538 32.31162,12.0431 23.92567,8.9183 33.30074,10.4701 68.02455,11.2589 24.08433,0.5473 31.03387,-1.0023 23.80857,-5.3087 z M 532.09021,972.80851 c 6.17707,-2.97736 27.60478,-6.94114 47.61716,-8.80851 64.6239,-6.03003 110.3158,-17.96474 152.02778,-39.70977 67.36547,-35.1184 103.14252,-79.55459 119.41133,-148.31242 4.72942,-19.98829 10.43689,-36.34238 12.68331,-36.34238 2.2464,0 1.20247,-20.97037 -2.31974,-46.60071 -4.89383,-35.61053 -9.60419,-48.45754 -19.97296,-54.47409 -11.26148,-6.53453 -14.938,-6.13356 -21.62059,2.35779 -9.04138,11.48858 -23.55809,13.72143 -23.55809,3.62351 0,-3.63426 7.9475,-13.99205 17.66104,-23.01726 15.94707,-14.81703 17.73244,-21.38316 18.39661,-67.65719 0.66599,-46.3983 -1.0588,-53.63987 -18.22791,-76.5292 -10.42988,-13.90495 -29.30529,-42.42585 -41.94531,-63.37981 -13.14641,-21.79348 -45.6548,-58.37357 -75.96067,-85.47484 -55.05494,-49.23322 -83.2447,-62.91212 -155.3603,-75.38726 -18.51718,-3.20323 -41.89339,-7.68515 -51.94714,-9.95982 -11.35558,-2.56924 -26.56702,-0.29435 -40.15913,6.0058 -12.03391,5.57789 -28.44994,10.14163 -36.48028,10.14163 -17.74254,0 -30.92637,11.24709 -30.92637,26.38342 0,18.40219 -37.26051,32.14064 -74.32425,27.40429 -28.31402,-3.61826 -36.15797,-1.75333 -66.61361,15.83731 -34.23297,19.7725 -47.09135,39.11998 -58.826,88.51346 -5.45083,22.94353 -42.05026,72.0521 -60.5573,81.25495 -17.1766,8.54119 -38.986669,64.63384 -38.986669,100.26851 0,10.92057 -3.407286,21.81222 -7.57174,24.2036 -5.002053,2.87239 -6.42441,21.0462 -4.191176,53.54913 4.634109,67.44367 42.874825,135.39283 108.656435,193.06915 48.68352,42.68498 78.053,59.3755 127.58736,72.50705 16.83607,4.46328 35.978,12.3399 42.53763,17.5036 6.55959,5.16358 23.39566,11.52246 37.41349,14.1308 34.28163,6.37864 131.56604,5.64293 145.55709,-1.10074 z M 390.99241,810.15864 c -58.23351,-15.886 -82.94167,-31.01316 -110.02851,-67.36296 -22.81674,-30.61966 -23.4355,-33.02475 -19.90244,-77.36214 4.84489,-60.7989 26.30055,-102.61436 80.03969,-155.99082 67.3092,-66.85496 137.59779,-89.31576 188.77708,-60.32412 29.04604,16.45382 33.23208,19.83749 88.00717,71.13847 63.36754,59.34853 67.09491,69.29548 51.94702,138.62601 -16.02529,73.34596 -39.09901,115.66279 -76.49515,140.29093 -27.5584,18.1492 -34.00322,19.56203 -95.23434,20.87733 -46.87456,1.00684 -77.53717,-1.82512 -107.11052,-9.8927 z m 241.86787,-63.78727 c 3.873,-6.724 6.68668,-21.65597 6.25268,-33.18218 -0.43412,-11.52628 -2.18902,-15.97955 -3.89996,-9.89614 -1.71102,6.0834 -6.12829,11.06073 -9.81607,11.06073 -3.68784,0 -5.01152,2.54613 -2.94151,5.65809 2.06996,3.11202 -0.81046,7.28902 -6.40097,9.28227 -13.1146,4.67592 -13.28289,29.30256 -0.19979,29.30256 5.48037,0 13.13314,-5.50143 17.0061,-12.22533 z M 474.53183,729.83766 c 1.28643,-3.6506 -9.21167,-11.37251 -23.32907,-17.15971 -14.1174,-5.78725 -44.50397,-24.62485 -67.52572,-41.86145 -38.31352,-28.68563 -49.88525,-33.00299 -49.88525,-18.612 0,8.23475 74.79501,75.11699 90.96096,81.33792 18.38327,7.0742 46.72397,4.96497 49.77908,-3.70476 z M 654.578,653.68264 c 4.13884,-62.85772 -13.51347,-65.58622 -19.61828,-3.03239 -3.11835,31.95287 -1.97862,38.42187 6.76919,38.42187 7.96036,0 11.08567,-8.60788 12.84909,-35.38948 z m -232.35434,-2.53299 c 0,-3.47624 -3.06112,-6.32044 -6.80247,-6.32044 -3.74134,0 -6.80245,2.8442 -6.80245,6.32044 0,3.47623 3.06111,6.32044 6.80245,6.32044 3.74135,0 6.80247,-2.84421 6.80247,-6.32044 z M 536.52075,615.5728 c 1.44053,-9.33408 -4.63214,-17.26119 -20.27109,-26.46139 -19.60468,-11.53324 -23.6541,-12.01992 -33.20333,-3.99033 -5.98154,5.0296 -13.87585,9.14482 -17.54286,9.14482 -3.66696,0 -12.60929,4.49843 -19.87167,9.99659 -12.66285,9.58653 -12.67587,9.83955 -0.31616,6.16803 7.10102,-2.10946 17.79163,0.23827 23.80862,5.22815 22.94294,19.0273 64.45519,18.9744 67.39676,-0.0862 z m 64.97049,-56.20493 c -1.94135,-4.70068 -8.07385,-6.92652 -13.62771,-4.94634 -7.15601,2.55143 -7.98295,5.56554 -2.83833,10.34559 3.99283,3.70995 7.52281,13.99797 7.84437,22.86236 0.58231,16.05045 0.60882,16.04303 6.36809,-1.79891 3.18094,-9.85378 4.195,-21.76198 2.25358,-26.4627 z m -114.64432,-4.45073 c 7.48269,0.59605 19.39766,1.87205 26.47765,2.83522 7.08008,0.96317 14.0996,-1.46095 15.59894,-5.38696 4.24638,-11.11891 -72.92959,-18.46545 -80.31105,-7.64492 -9.78095,14.33784 -6.65931,19.00955 9.32406,13.95389 8.418,-2.66262 21.42771,-4.35339 28.9104,-3.75723 z m -68.0245,-55.45747 c 2.3123,-3.47617 -0.56799,-6.32039 -6.40097,-6.32039 -5.83282,0 -10.60511,2.84422 -10.60511,6.32039 0,3.47624 2.8804,6.32044 6.40102,6.32044 3.52052,0 8.29277,-2.8442 10.60506,-6.32044 z m 488.92612,176.18157 c 7.46733,-34.69084 4.58581,-84.37637 -6.94375,-119.73076 -11.11032,-34.06901 -11.24029,-34.18555 -17.13628,-15.36808 -5.58472,17.82435 -1.65842,119.58268 5.54818,143.78943 5.11263,17.17337 13.84615,13.07778 18.53185,-8.69059 z"
       id="path2" />
  </g>
</svg>
