<svg xmlns="http://www.w3.org/2000/svg" viewBox="0 0 340 340" width="340" height="340">
<title>Full moon path 1 Feb 2026, lat 51.5N</title>
<path d="M289.14 97.11 L289.27 98.14 L289.39 99.16 L289.50 100.19 L289.60 101.21 L289.69 102.22 L289.77 103.24 L289.84 104.25 L289.90 105.26 L289.94 106.27 L289.98 107.27 L290.01 108.27 L290.03 109.27 L290.04 110.27 L290.03 111.26 L290.02 112.25 L290.00 113.23 L289.97 114.21 L289.93 115.19 L289.88 116.17 L289.82 117.14 L289.76 118.11 L289.68 119.07 L289.59 120.03 L289.50 120.99 L289.40 121.94 L289.28 122.89 L289.16 123.83 L289.03 124.78 L288.90 125.71 L288.75 126.65 L288.59 127.58 L288.43 128.50 L288.26 129.42 L288.08 130.34 L287.90 131.25 L287.70 132.16 L287.50 133.06 L287.29 133.96 L287.07 134.86 L286.84 135.75 L286.61 136.64 L286.37 137.52 L286.12 138.40 L285.87 139.27 L285.60 140.14 L285.34 141.01 L285.06 141.87 L284.78 142.72 L284.49 143.57 L284.19 144.42 L283.88 145.26 L283.57 146.10 L283.26 146.93 L282.93 147.76 L282.60 148.58 L282.27 149.40 L281.92 150.21 L281.57 151.02 L281.22 151.83 L280.86 152.63 L280.49 153.42 L280.12 154.21 L279.74 155.00 L279.35 155.78 L278.96 156.55 L278.57 157.32 L278.16 158.09 L277.76 158.85 L277.34 159.61 L276.92 160.36 L276.50 161.10 L276.07 161.85 L275.63 162.58 L275.19 163.31 L274.75 164.04 L274.30 164.76 L273.84 165.48 L273.38 166.19 L272.92 166.90 L272.45 167.60 L271.97 168.30 L271.50 168.99 L271.01 169.68 L270.52 170.36 L270.03 171.04 L269.53 171.72 L269.03 172.38 L268.52 173.05 L268.01 173.71 L267.50 174.36 L266.98 175.01 L266.45 175.65 L265.92 176.29 L265.39 176.92 L264.85 177.55 L264.31 178.18 L263.77 178.80 L263.22 179.41 L262.67 180.02 L262.11 180.63 L261.55 181.23 L260.99 181.82 L260.42 182.41 L259.85 182.99 L259.28 183.58 L258.70 184.15 L258.12 184.72 L257.54 185.29 L256.95 185.85 L256.36 186.40 L255.76 186.95 L255.16 187.50 L254.56 188.04 L253.96 188.58 L253.35 189.11 L252.74 189.64 L252.12 190.16 L251.51 190.67 L250.89 191.19 L250.26 191.69 L249.64 192.20 L249.01 192.69 L248.38 193.19 L247.74 193.68 L247.11 194.16 L246.47 194.64 L245.82 195.11 L245.18 195.58 L244.53 196.05 L243.88 196.51 L243.23 196.96 L242.57 197.41 L241.91 197.86 L241.25 198.30 L240.59 198.73 L239.92 199.16 L239.26 199.59 L238.59 200.01 L237.91 200.43 L237.24 200.84 L236.56 201.25 L235.88 201.65 L235.20 202.05 L234.52 202.44 L233.83 202.83 L233.15 203.22 L232.46 203.59 L231.77 203.97 L231.07 204.34 L230.38 204.70 L229.68 205.07 L228.98 205.42 L228.28 205.77 L227.58 206.12 L226.87 206.46 L226.17 206.80 L225.46 207.13 L224.75 207.46 L224.04 207.79 L223.32 208.11 L222.61 208.42 L221.89 208.73 L221.17 209.04 L220.45 209.34 L219.73 209.63 L219.01 209.92 L218.29 210.21 L217.56 210.49 L216.83 210.77 L216.11 211.05 L215.38 211.31 L214.65 211.58 L213.91 211.84 L213.18 212.09 L212.45 212.35 L211.71 212.59 L210.97 212.83 L210.23 213.07 L209.49 213.30 L208.75 213.53 L208.01 213.76 L207.27 213.98 L206.52 214.19 L205.78 214.40 L205.03 214.61 L204.29 214.81 L203.54 215.00 L202.79 215.20 L202.04 215.38 L201.29 215.57 L200.54 215.75 L199.78 215.92 L199.03 216.09 L198.28 216.26 L197.52 216.42 L196.77 216.58 L196.01 216.73 L195.25 216.88 L194.49 217.02 L193.74 217.16 L192.98 217.29 L192.22 217.42 L191.46 217.55 L190.69 217.67 L189.93 217.79 L189.17 217.90 L188.41 218.01 L187.64 218.11 L186.88 218.21 L186.12 218.30 L185.35 218.39 L184.59 218.48 L183.82 218.56 L183.06 218.64 L182.29 218.71 L181.52 218.78 L180.76 218.84 L179.99 218.90 L179.22 218.96 L178.45 219.01 L177.69 219.05 L176.92 219.10 L176.15 219.13 L175.38 219.17 L174.61 219.19 L173.84 219.22 L173.08 219.24 L172.31 219.25 L171.54 219.26 L170.77 219.27 L170.00 219.27 L169.23 219.27 L168.46 219.26 L167.69 219.25 L166.92 219.24 L166.16 219.22 L165.39 219.19 L164.62 219.17 L163.85 219.13 L163.08 219.10 L162.31 219.05 L161.55 219.01 L160.78 218.96 L160.01 218.90 L159.24 218.84 L158.48 218.78 L157.71 218.71 L156.94 218.64 L156.18 218.56 L155.41 218.48 L154.65 218.39 L153.88 218.30 L153.12 218.21 L152.36 218.11 L151.59 218.01 L150.83 217.90 L150.07 217.79 L149.31 217.67 L148.54 217.55 L147.78 217.42 L147.02 217.29 L146.26 217.16 L145.51 217.02 L144.75 216.88 L143.99 216.73 L143.23 216.58 L142.48 216.42 L141.72 216.26 L140.97 216.09 L140.22 215.92 L139.46 215.75 L138.71 215.57 L137.96 215.38 L137.21 215.20 L136.46 215.00 L135.71 214.81 L134.97 214.61 L134.22 214.40 L133.48 214.19 L132.73 213.98 L131.99 213.76 L131.25 213.53 L130.51 213.30 L129.77 213.07 L129.03 212.83 L128.29 212.59 L127.55 212.35 L126.82 212.09 L126.09 211.84 L125.35 211.58 L124.62 211.31 L123.89 211.05 L123.17 210.77 L122.44 210.49 L121.71 210.21 L120.99 209.92 L120.27 209.63 L119.55 209.34 L118.83 209.04 L118.11 208.73 L117.39 208.42 L116.68 208.11 L115.96 207.79 L115.25 207.46 L114.54 207.13 L113.83 206.80 L113.13 206.46 L112.42 206.12 L111.72 205.77 L111.02 205.42 L110.32 205.07 L109.62 204.70 L108.93 204.34 L108.23 203.97 L107.54 203.59 L106.85 203.22 L106.17 202.83 L105.48 202.44 L104.80 202.05 L104.12 201.65 L103.44 201.25 L102.76 200.84 L102.09 200.43 L101.41 200.01 L100.74 199.59 L100.08 199.16 L99.41 198.73 L98.75 198.30 L98.09 197.86 L97.43 197.41 L96.77 196.96 L96.12 196.51 L95.47 196.05 L94.82 195.58 L94.18 195.11 L93.53 194.64 L92.89 194.16 L92.26 193.68 L91.62 193.19 L90.99 192.69 L90.36 192.20 L89.74 191.69 L89.11 191.19 L88.49 190.67 L87.88 190.16 L87.26 189.64 L86.65 189.11 L86.04 188.58 L85.44 188.04 L84.84 187.50 L84.24 186.95 L83.64 186.40 L83.05 185.85 L82.46 185.29 L81.88 184.72 L81.30 184.15 L80.72 183.58 L80.15 182.99 L79.58 182.41 L79.01 181.82 L78.45 181.23 L77.89 180.63 L77.33 180.02 L76.78 179.41 L76.23 178.80 L75.69 178.18 L75.15 177.55 L74.61 176.92 L74.08 176.29 L73.55 175.65 L73.02 175.01 L72.50 174.36 L71.99 173.71 L71.48 173.05 L70.97 172.38 L70.47 171.72 L69.97 171.04 L69.48 170.36 L68.99 169.68 L68.50 168.99 L68.03 168.30 L67.55 167.60 L67.08 166.90 L66.62 166.19 L66.16 165.48 L65.70 164.76 L65.25 164.04 L64.81 163.31 L64.37 162.58 L63.93 161.85 L63.50 161.10 L63.08 160.36 L62.66 159.61 L62.24 158.85 L61.84 158.09 L61.43 157.32 L61.04 156.55 L60.65 155.78 L60.26 155.00 L59.88 154.21 L59.51 153.42 L59.14 152.63 L58.78 151.83 L58.43 151.02 L58.08 150.21 L57.73 149.40 L57.40 148.58 L57.07 147.76 L56.74 146.93 L56.43 146.10 L56.12 145.26 L55.81 144.42 L55.51 143.57 L55.22 142.72 L54.94 141.87 L54.66 141.01 L54.40 140.14 L54.13 139.27 L53.88 138.40 L53.63 137.52 L53.39 136.64 L53.16 135.75 L52.93 134.86 L52.71 133.96 L52.50 133.06 L52.30 132.16 L52.10 131.25 L51.92 130.34 L51.74 129.42 L51.57 128.50 L51.41 127.58 L51.25 126.65 L51.10 125.71 L50.97 124.78 L50.84 123.83 L50.72 122.89 L50.60 121.94 L50.50 120.99 L50.41 120.03 L50.32 119.07 L50.24 118.11 L50.18 117.14 L50.12 116.17 L50.07 115.19 L50.03 114.21 L50.00 113.23 L49.98 112.25 L49.97 111.26 L49.96 110.27 L49.97 109.27 L49.99 108.27 L50.02 107.27 L50.06 106.27 L50.10 105.26 L50.16 104.25 L50.23 103.24 L50.31 102.22 L50.40 101.21 L50.50 100.19 L50.61 99.16 L50.73 98.14 L50.86 97.11 L50.47 97.05 L50.32 98.08 L50.18 99.11 L50.06 100.14 L49.94 101.16 L49.84 102.18 L49.75 103.20 L49.66 104.22 L49.59 105.23 L49.53 106.24 L49.48 107.25 L49.43 108.26 L49.40 109.26 L49.38 110.26 L49.37 111.26 L49.36 112.25 L49.37 113.24 L49.39 114.23 L49.41 115.22 L49.45 116.20 L49.49 117.18 L49.55 118.15 L49.61 119.13 L49.68 120.09 L49.76 121.06 L49.85 122.02 L49.95 122.98 L50.06 123.93 L50.18 124.88 L50.30 125.83 L50.43 126.77 L50.58 127.71 L50.73 128.65 L50.89 129.58 L51.05 130.51 L51.23 131.43 L51.41 132.35 L51.60 133.26 L51.80 134.17 L52.01 135.08 L52.22 135.98 L52.44 136.88 L52.67 137.78 L52.91 138.67 L53.15 139.55 L53.41 140.44 L53.66 141.31 L53.93 142.19 L54.20 143.06 L54.49 143.92 L54.77 144.78 L55.07 145.64 L55.37 146.49 L55.68 147.33 L55.99 148.17 L56.31 149.01 L56.64 149.84 L56.98 150.67 L57.32 151.50 L57.66 152.32 L58.02 153.13 L58.38 153.94 L58.74 154.74 L59.11 155.55 L59.49 156.34 L59.88 157.13 L60.27 157.92 L60.66 158.70 L61.06 159.48 L61.47 160.25 L61.88 161.02 L62.30 161.78 L62.73 162.54 L63.16 163.29 L63.59 164.04 L64.03 164.78 L64.48 165.52 L64.93 166.25 L65.38 166.98 L65.85 167.71 L66.31 168.43 L66.78 169.14 L67.26 169.85 L67.74 170.55 L68.23 171.25 L68.72 171.95 L69.21 172.64 L69.71 173.32 L70.22 174.00 L70.73 174.68 L71.24 175.35 L71.76 176.02 L72.28 176.68 L72.81 177.33 L73.34 177.98 L73.88 178.63 L74.42 179.27 L74.96 179.91 L75.51 180.54 L76.06 181.16 L76.62 181.79 L77.18 182.40 L77.74 183.01 L78.31 183.62 L78.88 184.22 L79.46 184.82 L80.03 185.41 L80.62 186.00 L81.20 186.58 L81.79 187.16 L82.39 187.73 L82.99 188.30 L83.59 188.86 L84.19 189.42 L84.80 189.97 L85.41 190.52 L86.02 191.06 L86.64 191.60 L87.26 192.14 L87.89 192.66 L88.51 193.19 L89.14 193.71 L89.78 194.22 L90.41 194.73 L91.05 195.23 L91.69 195.73 L92.34 196.23 L92.99 196.72 L93.64 197.20 L94.29 197.68 L94.95 198.16 L95.61 198.63 L96.27 199.09 L96.93 199.55 L97.60 200.01 L98.27 200.46 L98.94 200.90 L99.62 201.34 L100.29 201.78 L100.97 202.21 L101.66 202.64 L102.34 203.06 L103.03 203.48 L103.72 203.89 L104.41 204.30 L105.10 204.70 L105.80 205.10 L106.49 205.49 L107.19 205.88 L107.90 206.26 L108.60 206.64 L109.31 207.02 L110.02 207.38 L110.73 207.75 L111.44 208.11 L112.15 208.46 L112.87 208.81 L113.59 209.16 L114.31 209.50 L115.03 209.84 L115.75 210.17 L116.48 210.49 L117.20 210.81 L117.93 211.13 L118.66 211.44 L119.39 211.75 L120.13 212.05 L120.86 212.35 L121.60 212.65 L122.34 212.93 L123.08 213.22 L123.82 213.50 L124.56 213.77 L125.30 214.04 L126.05 214.31 L126.79 214.57 L127.54 214.82 L128.29 215.08 L129.04 215.32 L129.79 215.56 L130.55 215.80 L131.30 216.03 L132.06 216.26 L132.81 216.49 L133.57 216.70 L134.33 216.92 L135.09 217.13 L135.85 217.33 L136.61 217.53 L137.37 217.73 L138.14 217.92 L138.90 218.10 L139.67 218.29 L140.44 218.46 L141.20 218.63 L141.97 218.80 L142.74 218.97 L143.51 219.12 L144.28 219.28 L145.05 219.43 L145.83 219.57 L146.60 219.71 L147.37 219.85 L148.15 219.98 L148.92 220.10 L149.70 220.22 L150.47 220.34 L151.25 220.45 L152.03 220.56 L152.80 220.66 L153.58 220.76 L154.36 220.86 L155.14 220.95 L155.92 221.03 L156.70 221.11 L157.48 221.19 L158.26 221.26 L159.04 221.32 L159.82 221.39 L160.61 221.44 L161.39 221.50 L162.17 221.54 L162.95 221.59 L163.73 221.63 L164.52 221.66 L165.30 221.69 L166.08 221.72 L166.87 221.74 L167.65 221.75 L168.43 221.76 L169.22 221.77 L170.00 221.77 L170.78 221.77 L171.57 221.76 L172.35 221.75 L173.13 221.74 L173.92 221.72 L174.70 221.69 L175.48 221.66 L176.27 221.63 L177.05 221.59 L177.83 221.54 L178.61 221.50 L179.39 221.44 L180.18 221.39 L180.96 221.32 L181.74 221.26 L182.52 221.19 L183.30 221.11 L184.08 221.03 L184.86 220.95 L185.64 220.86 L186.42 220.76 L187.20 220.66 L187.97 220.56 L188.75 220.45 L189.53 220.34 L190.30 220.22 L191.08 220.10 L191.85 219.98 L192.63 219.85 L193.40 219.71 L194.17 219.57 L194.95 219.43 L195.72 219.28 L196.49 219.12 L197.26 218.97 L198.03 218.80 L198.80 218.63 L199.56 218.46 L200.33 218.29 L201.10 218.10 L201.86 217.92 L202.63 217.73 L203.39 217.53 L204.15 217.33 L204.91 217.13 L205.67 216.92 L206.43 216.70 L207.19 216.49 L207.94 216.26 L208.70 216.03 L209.45 215.80 L210.21 215.56 L210.96 215.32 L211.71 215.08 L212.46 214.82 L213.21 214.57 L213.95 214.31 L214.70 214.04 L215.44 213.77 L216.18 213.50 L216.92 213.22 L217.66 212.93 L218.40 212.65 L219.14 212.35 L219.87 212.05 L220.61 211.75 L221.34 211.44 L222.07 211.13 L222.80 210.81 L223.52 210.49 L224.25 210.17 L224.97 209.84 L225.69 209.50 L226.41 209.16 L227.13 208.81 L227.85 208.46 L228.56 208.11 L229.27 207.75 L229.98 207.38 L230.69 207.02 L231.40 206.64 L232.10 206.26 L232.81 205.88 L233.51 205.49 L234.20 205.10 L234.90 204.70 L235.59 204.30 L236.28 203.89 L236.97 203.48 L237.66 203.06 L238.34 202.64 L239.03 202.21 L239.71 201.78 L240.38 201.34 L241.06 200.90 L241.73 200.46 L242.40 200.01 L243.07 199.55 L243.73 199.09 L244.39 198.63 L245.05 198.16 L245.71 197.68 L246.36 197.20 L247.01 196.72 L247.66 196.23 L248.31 195.73 L248.95 195.23 L249.59 194.73 L250.22 194.22 L250.86 193.71 L251.49 193.19 L252.11 192.66 L252.74 192.14 L253.36 191.60 L253.98 191.06 L254.59 190.52 L255.20 189.97 L255.81 189.42 L256.41 188.86 L257.01 188.30 L257.61 187.73 L258.21 187.16 L258.80 186.58 L259.38 186.00 L259.97 185.41 L260.54 184.82 L261.12 184.22 L261.69 183.62 L262.26 183.01 L262.82 182.40 L263.38 181.79 L263.94 181.16 L264.49 180.54 L265.04 179.91 L265.58 179.27 L266.12 178.63 L266.66 177.98 L267.19 177.33 L267.72 176.68 L268.24 176.02 L268.76 175.35 L269.27 174.68 L269.78 174.00 L270.29 173.32 L270.79 172.64 L271.28 171.95 L271.77 171.25 L272.26 170.55 L272.74 169.85 L273.22 169.14 L273.69 168.43 L274.15 167.71 L274.62 166.98 L275.07 166.25 L275.52 165.52 L275.97 164.78 L276.41 164.04 L276.84 163.29 L277.27 162.54 L277.70 161.78 L278.12 161.02 L278.53 160.25 L278.94 159.48 L279.34 158.70 L279.73 157.92 L280.12 157.13 L280.51 156.34 L280.89 155.55 L281.26 154.74 L281.62 153.94 L281.98 153.13 L282.34 152.32 L282.68 151.50 L283.02 150.67 L283.36 149.84 L283.69 149.01 L284.01 148.17 L284.32 147.33 L284.63 146.49 L284.93 145.64 L285.23 144.78 L285.51 143.92 L285.80 143.06 L286.07 142.19 L286.34 141.31 L286.59 140.44 L286.85 139.55 L287.09 138.67 L287.33 137.78 L287.56 136.88 L287.78 135.98 L287.99 135.08 L288.20 134.17 L288.40 133.26 L288.59 132.35 L288.77 131.43 L288.95 130.51 L289.11 129.58 L289.27 128.65 L289.42 127.71 L289.57 126.77 L289.70 125.83 L289.82 124.88 L289.94 123.93 L290.05 122.98 L290.15 122.02 L290.24 121.06 L290.32 120.09 L290.39 119.13 L290.45 118.15 L290.51 117.18 L290.55 116.20 L290.59 115.22 L290.61 114.23 L290.63 113.24 L290.64 112.25 L290.63 111.26 L290.62 110.26 L290.60 109.26 L290.57 108.26 L290.52 107.25 L290.47 106.24 L290.41 105.23 L290.34 104.22 L290.25 103.20 L290.16 102.18 L290.06 101.16 L289.94 100.14 L289.82 99.11 L289.68 98.08 L289.53 97.05 Z" fill="#000" stroke="none"/>
</svg>
